<svg width="12" height="12" viewBox="0 0 12 12" fill="none" xmlns="http://www.w3.org/2000/svg">
<path d="M10.5895 8.04938C10.5895 8.34115 10.4736 8.62098 10.2673 8.82729C10.061 9.03361 9.78114 9.14952 9.48937 9.14952H2.88852L0.688232 11.3498V2.54867C0.688232 2.25689 0.80414 1.97707 1.01046 1.77075C1.21677 1.56443 1.4966 1.44852 1.78837 1.44852H9.48937C9.78114 1.44852 10.061 1.56443 10.2673 1.77075C10.4736 1.97707 10.5895 2.25689 10.5895 2.54867V8.04938Z" stroke="white" stroke-width="1.10014" stroke-linecap="round" stroke-linejoin="round"/>
<path d="M3.43872 6.39915C3.7305 6.39915 4.01032 6.28325 4.21664 6.07693C4.42296 5.87061 4.53886 5.59079 4.53886 5.29901V4.19887H3.43872" stroke="white" stroke-width="1.10014" stroke-linecap="round" stroke-linejoin="round"/>
<path d="M6.73926 6.39915C7.03103 6.39915 7.31086 6.28325 7.51718 6.07693C7.72349 5.87061 7.8394 5.59079 7.8394 5.29901V4.19887H6.73926" stroke="white" stroke-width="1.10014" stroke-linecap="round" stroke-linejoin="round"/>
</svg>
