<svg width="43" height="32" viewBox="0 0 43 32" fill="none" xmlns="http://www.w3.org/2000/svg">
<path d="M3.64693 31.0678H10.2072V15.134L0.832947 8.09497V28.2538C0.832947 29.8139 2.09569 31.0678 3.64693 31.0678Z" fill="#4285F4"/>
<path d="M32.7175 31.0678H39.2778C40.829 31.0678 42.0918 29.805 42.0918 28.2538V8.09497L32.7175 15.1251V31.0678Z" fill="#34A853"/>
<path d="M32.7175 2.9376V15.1251L42.0918 8.09495V4.34056C42.0918 0.866597 38.123 -1.12221 35.3421 0.965714L32.7175 2.9376Z" fill="#FBBC04"/>
<path d="M10.2073 15.134V2.93761L21.4624 11.3796L32.7175 2.93761V15.134L21.4624 23.567L10.2073 15.134Z" fill="#EA4335"/>
<path d="M0.832947 4.34875V8.10315L10.2072 15.1333V2.93773L7.58264 0.973908C4.80169 -1.11402 0.832947 0.87479 0.832947 4.34875Z" fill="#C5221F"/>
</svg>
