<svg width="42" height="42" viewBox="0 0 42 42" fill="none" xmlns="http://www.w3.org/2000/svg">
<path d="M21.1096 0.796875C12.647 0.796875 10.1721 0.805605 9.69097 0.845514C7.95431 0.989871 6.87366 1.26331 5.69635 1.84947C4.78905 2.3 4.07349 2.82225 3.36729 3.55432C2.08117 4.8894 1.3017 6.53189 1.01953 8.48431C0.882348 9.43214 0.842439 9.62545 0.834332 14.4669C0.831215 16.0807 0.834332 18.2046 0.834332 21.0534C0.834332 29.5091 0.843686 31.9816 0.884219 32.4617C1.02452 34.1516 1.28954 35.2148 1.85076 36.3778C2.92331 38.6039 4.97175 40.2751 7.38499 40.8987C8.22058 41.1138 9.14347 41.2323 10.3283 41.2884C10.8302 41.3102 15.9467 41.3258 21.0662 41.3258C26.1858 41.3258 31.3053 41.3196 31.7948 41.2946C33.1667 41.2301 33.9633 41.1232 34.8441 40.8956C37.2729 40.2689 39.284 38.6226 40.3783 36.3653C40.9286 35.2304 41.2077 34.1266 41.334 32.525C41.3614 32.1758 41.3729 26.6082 41.3729 21.0481C41.3729 15.4871 41.3605 9.92976 41.333 9.58055C41.2052 7.95302 40.9262 6.85865 40.3581 5.70192C39.892 4.75502 39.3744 4.04788 38.623 3.32485C37.282 2.04403 35.642 1.26456 33.6877 0.9827C32.7408 0.845826 32.5522 0.805293 27.707 0.796875H21.1096Z" fill="url(#paint0_radial_180_505)"/>
<path d="M21.1096 0.796875C12.647 0.796875 10.1721 0.805605 9.69097 0.845514C7.95431 0.989871 6.87366 1.26331 5.69635 1.84947C4.78905 2.3 4.07349 2.82225 3.36729 3.55432C2.08117 4.8894 1.3017 6.53189 1.01953 8.48431C0.882348 9.43214 0.842439 9.62545 0.834332 14.4669C0.831215 16.0807 0.834332 18.2046 0.834332 21.0534C0.834332 29.5091 0.843686 31.9816 0.884219 32.4617C1.02452 34.1516 1.28954 35.2148 1.85076 36.3778C2.92331 38.6039 4.97175 40.2751 7.38499 40.8987C8.22058 41.1138 9.14347 41.2323 10.3283 41.2884C10.8302 41.3102 15.9467 41.3258 21.0662 41.3258C26.1858 41.3258 31.3053 41.3196 31.7948 41.2946C33.1667 41.2301 33.9633 41.1232 34.8441 40.8956C37.2729 40.2689 39.284 38.6226 40.3783 36.3653C40.9286 35.2304 41.2077 34.1266 41.334 32.525C41.3614 32.1758 41.3729 26.6082 41.3729 21.0481C41.3729 15.4871 41.3605 9.92976 41.333 9.58055C41.2052 7.95302 40.9262 6.85865 40.3581 5.70192C39.892 4.75502 39.3744 4.04788 38.623 3.32485C37.282 2.04403 35.642 1.26456 33.6877 0.9827C32.7408 0.845826 32.5522 0.805293 27.707 0.796875H21.1096Z" fill="url(#paint1_radial_180_505)"/>
<path d="M21.1002 6.09724C17.0357 6.09724 16.5256 6.11502 14.9293 6.18766C13.336 6.26062 12.2485 6.51286 11.2969 6.88295C10.3126 7.2652 9.47766 7.77653 8.64581 8.60869C7.81334 9.44054 7.30201 10.2755 6.91851 11.2595C6.54748 12.2114 6.29494 13.2992 6.22322 14.8918C6.15182 16.4882 6.13312 16.9986 6.13312 21.063C6.13312 25.1275 6.1512 25.636 6.22354 27.2324C6.29681 28.8256 6.54904 29.9131 6.91882 30.8647C7.30139 31.849 7.81272 32.684 8.64488 33.5158C9.47642 34.3483 10.3114 34.8609 11.2951 35.2431C12.2473 35.6132 13.3351 35.8655 14.928 35.9384C16.5244 36.0111 17.0341 36.0288 21.0983 36.0288C25.1631 36.0288 25.6716 36.0111 27.2679 35.9384C28.8612 35.8655 29.9499 35.6132 30.9021 35.2431C31.8861 34.8609 32.7199 34.3483 33.5514 33.5158C34.3839 32.684 34.8952 31.849 35.2787 30.865C35.6466 29.9131 35.8992 28.8253 35.974 27.2327C36.0457 25.6363 36.0644 25.1275 36.0644 21.063C36.0644 16.9986 36.0457 16.4885 35.974 14.8921C35.8992 13.2989 35.6466 12.2114 35.2787 11.2598C34.8952 10.2755 34.3839 9.44054 33.5514 8.60869C32.7189 7.77622 31.8865 7.26489 30.9012 6.88295C29.9471 6.51286 28.859 6.26062 27.2658 6.18766C25.6694 6.11502 25.1612 6.09724 21.0955 6.09724H21.1002ZM19.7576 8.79421C20.1561 8.79358 20.6007 8.79421 21.1002 8.79421C25.096 8.79421 25.5696 8.80855 27.1476 8.88026C28.6068 8.94698 29.3987 9.1908 29.9262 9.39564C30.6246 9.6669 31.1226 9.99116 31.6461 10.515C32.1699 11.0388 32.4941 11.5376 32.766 12.236C32.9709 12.7629 33.215 13.5549 33.2814 15.0141C33.3531 16.5917 33.3687 17.0656 33.3687 21.0596C33.3687 25.0536 33.3531 25.5275 33.2814 27.1052C33.2147 28.5643 32.9709 29.3563 32.766 29.8832C32.4948 30.5816 32.1699 31.0789 31.6461 31.6024C31.1223 32.1262 30.625 32.4505 29.9262 32.7217C29.3993 32.9275 28.6068 33.1707 27.1476 33.2374C25.57 33.3091 25.096 33.3247 21.1002 33.3247C17.104 33.3247 16.6304 33.3091 15.0527 33.2374C13.5936 33.1701 12.8016 32.9262 12.2738 32.7214C11.5754 32.4501 11.0765 32.1259 10.5527 31.6021C10.0289 31.0783 9.70464 30.5807 9.43277 29.882C9.22792 29.355 8.98379 28.5631 8.91738 27.1039C8.84567 25.5263 8.83133 25.0524 8.83133 21.0559C8.83133 17.0594 8.84567 16.588 8.91738 15.0103C8.9841 13.5511 9.22792 12.7592 9.43277 12.2317C9.70402 11.5333 10.0289 11.0344 10.5527 10.5106C11.0765 9.98679 11.5754 9.66253 12.2738 9.39066C12.8013 9.18488 13.5936 8.94168 15.0527 8.87465C16.4333 8.81229 16.9684 8.79358 19.7576 8.79046V8.79421ZM29.0888 11.2792C28.0973 11.2792 27.2929 12.0826 27.2929 13.0744C27.2929 14.0659 28.0973 14.8703 29.0888 14.8703C30.0803 14.8703 30.8847 14.0659 30.8847 13.0744C30.8847 12.0829 30.0803 11.2785 29.0888 11.2785V11.2792ZM21.1002 13.3775C16.8558 13.3775 13.4146 16.8187 13.4146 21.063C13.4146 25.3074 16.8558 28.747 21.1002 28.747C25.3445 28.747 28.7845 25.3074 28.7845 21.063C28.7845 16.8187 25.3445 13.3775 21.1002 13.3775ZM21.1002 16.0744C23.8551 16.0744 26.0888 18.3078 26.0888 21.063C26.0888 23.818 23.8551 26.0516 21.1002 26.0516C18.3449 26.0516 16.1116 23.818 16.1116 21.063C16.1116 18.3078 18.3449 16.0744 21.1002 16.0744Z" fill="white"/>
<defs>
<radialGradient id="paint0_radial_180_505" cx="0" cy="0" r="1" gradientUnits="userSpaceOnUse" gradientTransform="translate(11.6014 44.4474) rotate(-90) scale(40.1672 37.3688)">
<stop stop-color="#FFDD55"/>
<stop offset="0.1" stop-color="#FFDD55"/>
<stop offset="0.5" stop-color="#FF543E"/>
<stop offset="1" stop-color="#C837AB"/>
</radialGradient>
<radialGradient id="paint1_radial_180_505" cx="0" cy="0" r="1" gradientUnits="userSpaceOnUse" gradientTransform="translate(-5.95772 3.71651) rotate(78.6776) scale(17.9551 74.0303)">
<stop stop-color="#3771C8"/>
<stop offset="0.128" stop-color="#3771C8"/>
<stop offset="1" stop-color="#6600FF" stop-opacity="0"/>
</radialGradient>
</defs>
</svg>
