<svg width="42" height="41" viewBox="0 0 42 41" fill="none" xmlns="http://www.w3.org/2000/svg">
<path d="M38.4731 0.0395508H3.71924C2.12677 0.0395508 0.832886 1.35153 0.832886 2.96209V37.6526C0.832886 39.2632 2.12677 40.5751 3.71924 40.5751H38.4731C40.0655 40.5751 41.3685 39.2632 41.3685 37.6526V2.96209C41.3685 1.35153 40.0655 0.0395508 38.4731 0.0395508ZM13.084 34.7843H7.07609V15.4395H13.0931V34.7843H13.084ZM10.0801 12.7974C8.15282 12.7974 6.59654 11.2321 6.59654 9.31387C6.59654 7.39567 8.15282 5.83035 10.0801 5.83035C11.9983 5.83035 13.5636 7.39567 13.5636 9.31387C13.5636 11.2411 12.0073 12.7974 10.0801 12.7974ZM35.6048 34.7843H29.5969V25.3743C29.5969 23.1304 29.5516 20.244 26.4753 20.244C23.3446 20.244 22.8651 22.687 22.8651 25.2114V34.7843H16.8571V15.4395H22.6208V18.0815H22.7022C23.5075 16.5614 25.4709 14.9599 28.3935 14.9599C34.4738 14.9599 35.6048 18.9682 35.6048 24.1799V34.7843Z" fill="#0A66C2"/>
</svg>
